<?xml version="1.0" standalone="no"?><!DOCTYPE svg PUBLIC "-//W3C//DTD SVG 1.1//EN" "http://www.w3.org/Graphics/SVG/1.1/DTD/svg11.dtd"><svg t="1619786159514" class="icon" viewBox="0 0 1024 1024" version="1.1" xmlns="http://www.w3.org/2000/svg" p-id="2902" xmlns:xlink="http://www.w3.org/1999/xlink" width="180" height="180"><defs><style type="text/css"></style></defs><path d="M501.55102 73.142857C253.408653 73.142857 52.244898 274.306612 52.244898 522.44898S253.408653 971.755102 501.55102 971.755102 950.857143 770.591347 950.857143 522.44898 749.693388 73.142857 501.55102 73.142857z m0 62.693878c213.514449 0 386.612245 173.097796 386.612245 386.612245S715.065469 909.061224 501.55102 909.061224 114.938776 735.963429 114.938776 522.44898 288.036571 135.836735 501.55102 135.836735z" fill="#666666" p-id="2903"></path><path d="M613.146122 696.842449c7.000816 0 12.998531-2.298776 17.993143-6.938122 4.994612-4.597551 7.857633-11.535673 8.589062-20.772572a480.381388 480.381388 0 0 0-19.393307-88.670041h6.645551c8.505469-1.859918 14.774857-5.078204 18.84996-9.696653 4.054204-4.618449 6.102204-9.529469 6.102204-14.691265 0-5.182694-1.859918-9.989224-5.558857-14.419592-3.678041-4.430367-9.404082-7.941224-17.178123-10.532571-4.054204 0-8.484571 0.10449-13.291102 0.292571-4.806531 0.188082-9.236898 0.271673-13.312 0.271674-3.322776-8.505469-6.833633-17.094531-10.532571-25.767184a648.672653 648.672653 0 0 0-10.511674-23.552c-5.182694-10.720653-10.720653-21.984653-16.634775-33.812898a594.358857 594.358857 0 0 0-19.121633-35.192163 409.182041 409.182041 0 0 0-22.151837-33.812898c-7.941224-10.887837-16.551184-20.772571-25.788081-29.633306-7.753143-7.021714-16.613878-8.881633-26.603102-5.558858h0.564244c-9.989224 2.236082-16.446694 7.209796-19.393306 14.962939l0.543347-0.543347a1025.316571 1025.316571 0 0 0-64.282122 149.086041A1514.307918 1514.307918 0 0 0 345.443265 662.465306c-2.215184 9.968327-0.459755 17.993143 5.266286 24.095347 5.726041 6.102204 12.476082 9.153306 20.229225 9.153306 5.537959 0 10.720653-1.859918 15.527183-5.537959 4.806531-3.698939 8.672653-9.613061 11.640163-17.763265 3.322776-16.237714 6.917224-31.472327 10.804245-45.703837 3.866122-14.210612 8.024816-29.089959 12.476082-44.617143h1.107592c23.635592 0 47.104-0.188082 70.384326-0.543347 23.259429-0.376163 46.539755-0.564245 69.820082-0.564245 5.914122 16.634776 10.804245 32.893388 14.691265 48.775837 3.866122 15.882449 6.729143 32.141061 8.568164 48.775837 2.96751 6.269388 6.938122 10.887837 11.911836 13.855347 5.01551 2.946612 10.093714 4.430367 15.25551 4.430367z m-175.689142-164.04898a1860.148245 1860.148245 0 0 1 22.444408-60.687673 923.898776 923.898776 0 0 1 24.659592-57.364898c4.430367 6.290286 8.944327 13.500082 13.583673 21.629388 4.597551 8.129306 9.132408 16.258612 13.583674 24.387918l5.517061 9.968327c4.806531 10.720653 9.613061 20.877061 14.419592 30.469224 4.806531 9.613061 9.404082 19.769469 13.855347 30.490123-18.849959 0-36.864 0.188082-54.042123 0.564244l-13.040326 0.229878c-13.186612 0.20898-26.853878 0.313469-40.980898 0.313469z" fill="#666666" p-id="2904"></path></svg>